<svg width="182" height="40" viewBox="0 0 182 40" fill="none" xmlns="http://www.w3.org/2000/svg">
<g clip-path="url(#clip0_48_2990)">
<path fill-rule="evenodd" clip-rule="evenodd" d="M22.2764 36.8951H25.8776V18.9662L30.9787 18.9662L31.9996 15.3755L25.8776 15.3755V10.4371C25.8776 8.19362 27.7081 6.36847 29.9581 6.36847V2.77778C25.7224 2.77778 22.2764 6.21407 22.2764 10.4371V15.3755L20.4602 15.3755C19.6544 12.1815 16.7497 9.80993 13.2998 9.80993C9.22895 9.80993 5.91729 13.1119 5.91729 17.1708C5.91729 21.2298 9.22895 24.5318 13.2998 24.5318C16.7497 24.5318 19.6544 22.1602 20.4602 18.9662L22.2764 18.9662V36.8951ZM37.418 15.3755H39.9388V18.9662H37.418V30.7882H33.8168V10.6803H37.418V15.3755ZM13.2998 13.0416C11.0162 13.0416 9.15837 14.894 9.15837 17.1708C9.15837 19.4477 11.0162 21.3001 13.2998 21.3001C15.5833 21.3001 17.4411 19.4477 17.4411 17.1708C17.4411 14.894 15.5833 13.0416 13.2998 13.0416ZM0 20.6096C0 26.0897 4.47126 30.5479 9.96705 30.5479V26.9572C6.45696 26.9572 3.6012 24.1094 3.6012 20.6096V10.6802H0V20.6096Z" fill="#FF774A"/>
</g>
<path d="M53.3596 10H54.288L48.5202 29.8802H47.5917L53.3596 10Z" fill="#115644"/>
<path d="M67.4577 22.0669H69.3785L70.5162 23.5418L71.3279 24.5022L73.2774 27.0062H71.2193L69.893 25.3254L69.3271 24.5251L67.4577 22.0669ZM73.5575 20.146C73.5575 21.4075 73.3212 22.488 72.8486 23.3874C72.3798 24.2831 71.7395 24.9691 70.9278 25.4455C70.1198 25.9219 69.2032 26.1601 68.178 26.1601C67.1528 26.1601 66.2343 25.9219 65.4225 25.4455C64.6145 24.9653 63.9742 24.2773 63.5017 23.3817C63.0329 22.4823 62.7985 21.4037 62.7985 20.146C62.7985 18.8845 63.0329 17.8059 63.5017 16.9103C63.9742 16.0109 64.6145 15.323 65.4225 14.8466C66.2343 14.3702 67.1528 14.132 68.178 14.132C69.2032 14.132 70.1198 14.3702 70.9278 14.8466C71.7395 15.323 72.3798 16.0109 72.8486 16.9103C73.3212 17.8059 73.5575 18.8845 73.5575 20.146ZM71.4251 20.146C71.4251 19.258 71.286 18.5091 71.0078 17.8993C70.7334 17.2857 70.3523 16.8227 69.8644 16.5101C69.3766 16.1938 68.8145 16.0356 68.178 16.0356C67.5415 16.0356 66.9794 16.1938 66.4915 16.5101C66.0037 16.8227 65.6207 17.2857 65.3425 17.8993C65.0681 18.5091 64.9309 19.258 64.9309 20.146C64.9309 21.034 65.0681 21.7848 65.3425 22.3984C65.6207 23.0082 66.0037 23.4713 66.4915 23.7876C66.9794 24.1001 67.5415 24.2564 68.178 24.2564C68.8145 24.2564 69.3766 24.1001 69.8644 23.7876C70.3523 23.4713 70.7334 23.0082 71.0078 22.3984C71.286 21.7848 71.4251 21.034 71.4251 20.146ZM81.0836 22.307V17.219H83.1531V26H81.1465V24.4393H81.055C80.8569 24.931 80.531 25.333 80.0775 25.6456C79.6278 25.9581 79.0732 26.1143 78.4139 26.1143C77.8384 26.1143 77.3296 25.9867 76.8875 25.7313C76.4492 25.4722 76.1062 25.0967 75.8585 24.6051C75.6108 24.1097 75.4869 23.5113 75.4869 22.81V17.219H77.5564V22.4899C77.5564 23.0463 77.7088 23.4884 78.0137 23.8162C78.3186 24.144 78.7188 24.3078 79.2142 24.3078C79.5191 24.3078 79.8145 24.2335 80.1003 24.0849C80.3862 23.9362 80.6206 23.7152 80.8035 23.4217C80.9903 23.1245 81.0836 22.7529 81.0836 22.307ZM87.808 26.1772C87.2516 26.1772 86.7504 26.0781 86.3045 25.8799C85.8624 25.678 85.5118 25.3807 85.2526 24.9881C84.9972 24.5956 84.8696 24.1116 84.8696 23.5361C84.8696 23.0406 84.961 22.6309 85.144 22.307C85.3269 21.983 85.5765 21.7238 85.8929 21.5295C86.2092 21.3351 86.5655 21.1884 86.9619 21.0893C87.3621 20.9864 87.7756 20.9121 88.2025 20.8663C88.717 20.813 89.1343 20.7653 89.4544 20.7234C89.7746 20.6777 90.0071 20.6091 90.1519 20.5176C90.3005 20.4223 90.3748 20.2756 90.3748 20.0774V20.0431C90.3748 19.6124 90.2472 19.279 89.9918 19.0427C89.7365 18.8064 89.3687 18.6882 88.8885 18.6882C88.3816 18.6882 87.9795 18.7988 87.6822 19.0198C87.3888 19.2409 87.1906 19.5019 87.0877 19.803L85.1554 19.5286C85.3079 18.995 85.5594 18.5491 85.91 18.1909C86.2607 17.8288 86.6894 17.5582 87.1963 17.3791C87.7032 17.1962 88.2634 17.1047 88.877 17.1047C89.3001 17.1047 89.7212 17.1542 90.1404 17.2533C90.5597 17.3524 90.9427 17.5163 91.2895 17.745C91.6363 17.9698 91.9146 18.2766 92.1242 18.6654C92.3376 19.0541 92.4443 19.54 92.4443 20.1231V26H90.4549V24.7938H90.3863C90.2605 25.0377 90.0833 25.2663 89.8546 25.4798C89.6297 25.6894 89.3458 25.859 89.0028 25.9886C88.6636 26.1143 88.2653 26.1772 87.808 26.1772ZM88.3454 24.6566C88.7608 24.6566 89.121 24.5746 89.4258 24.4107C89.7307 24.243 89.9651 24.022 90.129 23.7476C90.2967 23.4732 90.3806 23.174 90.3806 22.8501V21.8153C90.3158 21.8687 90.2052 21.9182 90.049 21.964C89.8965 22.0097 89.725 22.0497 89.5345 22.084C89.3439 22.1183 89.1553 22.1488 88.9685 22.1755C88.7818 22.2021 88.6198 22.225 88.4826 22.2441C88.1739 22.286 87.8976 22.3546 87.6536 22.4499C87.4097 22.5452 87.2173 22.6785 87.0762 22.8501C86.9352 23.0177 86.8647 23.235 86.8647 23.5018C86.8647 23.8829 87.0038 24.1706 87.2821 24.365C87.5603 24.5594 87.9147 24.6566 88.3454 24.6566ZM96.5947 14.292V26H94.5252V14.292H96.5947ZM98.7228 26V17.219H100.792V26H98.7228ZM99.7632 15.9728C99.4355 15.9728 99.1534 15.8641 98.9171 15.6469C98.6808 15.4259 98.5627 15.161 98.5627 14.8523C98.5627 14.5398 98.6808 14.2749 98.9171 14.0576C99.1534 13.8366 99.4355 13.7261 99.7632 13.7261C100.095 13.7261 100.377 13.8366 100.609 14.0576C100.846 14.2749 100.964 14.5398 100.964 14.8523C100.964 15.161 100.846 15.4259 100.609 15.6469C100.377 15.8641 100.095 15.9728 99.7632 15.9728ZM107.368 17.219V18.8197H102.177V17.219H107.368ZM103.475 26V16.3901C103.475 15.7994 103.597 15.3077 103.841 14.9152C104.088 14.5226 104.42 14.2291 104.835 14.0348C105.251 13.8404 105.712 13.7432 106.219 13.7432C106.577 13.7432 106.895 13.7718 107.174 13.829C107.452 13.8861 107.658 13.9376 107.791 13.9833L107.379 15.584C107.292 15.5573 107.181 15.5307 107.048 15.504C106.914 15.4735 106.766 15.4583 106.602 15.4583C106.217 15.4583 105.944 15.5516 105.784 15.7384C105.628 15.9213 105.55 16.1843 105.55 16.5273V26H103.475ZM108.989 26V17.219H111.058V26H108.989ZM110.029 15.9728C109.701 15.9728 109.419 15.8641 109.183 15.6469C108.947 15.4259 108.829 15.161 108.829 14.8523C108.829 14.5398 108.947 14.2749 109.183 14.0576C109.419 13.8366 109.701 13.7261 110.029 13.7261C110.361 13.7261 110.643 13.8366 110.875 14.0576C111.112 14.2749 111.23 14.5398 111.23 14.8523C111.23 15.161 111.112 15.4259 110.875 15.6469C110.643 15.8641 110.361 15.9728 110.029 15.9728ZM117.016 26.1715C116.14 26.1715 115.387 25.979 114.758 25.5941C114.133 25.2092 113.651 24.6775 113.312 23.9991C112.977 23.3169 112.809 22.5318 112.809 21.6438C112.809 20.752 112.98 19.965 113.323 19.2828C113.666 18.5968 114.15 18.0632 114.775 17.6821C115.404 17.2971 116.148 17.1047 117.005 17.1047C117.718 17.1047 118.348 17.2362 118.897 17.4991C119.45 17.7583 119.89 18.1261 120.218 18.6025C120.546 19.0751 120.732 19.6277 120.778 20.2603H118.8C118.72 19.8373 118.53 19.4848 118.228 19.2027C117.931 18.9169 117.533 18.774 117.034 18.774C116.611 18.774 116.239 18.8883 115.919 19.117C115.599 19.3419 115.349 19.6658 115.17 20.0888C114.995 20.5119 114.907 21.0188 114.907 21.6095C114.907 22.2079 114.995 22.7224 115.17 23.153C115.345 23.5799 115.591 23.9096 115.907 24.142C116.228 24.3707 116.603 24.4851 117.034 24.4851C117.339 24.4851 117.611 24.4279 117.851 24.3135C118.095 24.1954 118.299 24.0258 118.463 23.8048C118.627 23.5837 118.739 23.315 118.8 22.9987H120.778C120.729 23.6199 120.546 24.1706 120.229 24.6508C119.913 25.1272 119.482 25.5007 118.937 25.7713C118.392 26.0381 117.752 26.1715 117.016 26.1715ZM125.004 26.1772C124.448 26.1772 123.947 26.0781 123.501 25.8799C123.059 25.678 122.708 25.3807 122.449 24.9881C122.193 24.5956 122.066 24.1116 122.066 23.5361C122.066 23.0406 122.157 22.6309 122.34 22.307C122.523 21.983 122.773 21.7238 123.089 21.5295C123.405 21.3351 123.762 21.1884 124.158 21.0893C124.558 20.9864 124.972 20.9121 125.399 20.8663C125.913 20.813 126.331 20.7653 126.651 20.7234C126.971 20.6777 127.203 20.6091 127.348 20.5176C127.497 20.4223 127.571 20.2756 127.571 20.0774V20.0431C127.571 19.6124 127.443 19.279 127.188 19.0427C126.933 18.8064 126.565 18.6882 126.085 18.6882C125.578 18.6882 125.176 18.7988 124.878 19.0198C124.585 19.2409 124.387 19.5019 124.284 19.803L122.352 19.5286C122.504 18.995 122.756 18.5491 123.106 18.1909C123.457 17.8288 123.886 17.5582 124.393 17.3791C124.899 17.1962 125.46 17.1047 126.073 17.1047C126.496 17.1047 126.917 17.1542 127.337 17.2533C127.756 17.3524 128.139 17.5163 128.486 17.745C128.833 17.9698 129.111 18.2766 129.32 18.6654C129.534 19.0541 129.641 19.54 129.641 20.1231V26H127.651V24.7938H127.583C127.457 25.0377 127.28 25.2663 127.051 25.4798C126.826 25.6894 126.542 25.859 126.199 25.9886C125.86 26.1143 125.462 26.1772 125.004 26.1772ZM125.542 24.6566C125.957 24.6566 126.317 24.5746 126.622 24.4107C126.927 24.243 127.161 24.022 127.325 23.7476C127.493 23.4732 127.577 23.174 127.577 22.8501V21.8153C127.512 21.8687 127.401 21.9182 127.245 21.964C127.093 22.0097 126.921 22.0497 126.731 22.084C126.54 22.1183 126.352 22.1488 126.165 22.1755C125.978 22.2021 125.816 22.225 125.679 22.2441C125.37 22.286 125.094 22.3546 124.85 22.4499C124.606 22.5452 124.414 22.6785 124.273 22.8501C124.131 23.0177 124.061 23.235 124.061 23.5018C124.061 23.8829 124.2 24.1706 124.478 24.365C124.757 24.5594 125.111 24.6566 125.542 24.6566ZM135.806 26V14.292H137.927V24.2221H143.084V26H135.806ZM148.72 26.1715C147.84 26.1715 147.08 25.9886 146.439 25.6227C145.803 25.253 145.313 24.7309 144.97 24.0563C144.627 23.3779 144.456 22.5795 144.456 21.661C144.456 20.7577 144.627 19.965 144.97 19.2828C145.317 18.5968 145.801 18.0632 146.422 17.6821C147.043 17.2971 147.773 17.1047 148.612 17.1047C149.153 17.1047 149.664 17.1923 150.144 17.3677C150.628 17.5392 151.055 17.8059 151.424 18.168C151.798 18.5301 152.091 18.9912 152.305 19.5515C152.518 20.1079 152.625 20.771 152.625 21.5409V22.1755H145.427V20.7806H150.641C150.637 20.3842 150.552 20.0317 150.384 19.723C150.216 19.4105 149.982 19.1646 149.681 18.9855C149.383 18.8064 149.037 18.7168 148.64 18.7168C148.217 18.7168 147.846 18.8197 147.526 19.0255C147.205 19.2275 146.956 19.4943 146.777 19.8259C146.601 20.1536 146.512 20.5138 146.508 20.9063V22.124C146.508 22.6347 146.601 23.073 146.788 23.4389C146.975 23.8009 147.236 24.0792 147.571 24.2735C147.907 24.4641 148.299 24.5594 148.749 24.5594C149.05 24.5594 149.322 24.5174 149.566 24.4336C149.81 24.3459 150.022 24.2183 150.201 24.0506C150.38 23.8829 150.515 23.6752 150.607 23.4274L152.539 23.6447C152.417 24.1554 152.185 24.6013 151.842 24.9824C151.502 25.3597 151.068 25.6532 150.538 25.8628C150.009 26.0686 149.403 26.1715 148.72 26.1715ZM156.902 26.1772C156.346 26.1772 155.845 26.0781 155.399 25.8799C154.957 25.678 154.606 25.3807 154.347 24.9881C154.092 24.5956 153.964 24.1116 153.964 23.5361C153.964 23.0406 154.056 22.6309 154.238 22.307C154.421 21.983 154.671 21.7238 154.987 21.5295C155.304 21.3351 155.66 21.1884 156.056 21.0893C156.457 20.9864 156.87 20.9121 157.297 20.8663C157.811 20.813 158.229 20.7653 158.549 20.7234C158.869 20.6777 159.102 20.6091 159.246 20.5176C159.395 20.4223 159.469 20.2756 159.469 20.0774V20.0431C159.469 19.6124 159.342 19.279 159.086 19.0427C158.831 18.8064 158.463 18.6882 157.983 18.6882C157.476 18.6882 157.074 18.7988 156.777 19.0198C156.483 19.2409 156.285 19.5019 156.182 19.803L154.25 19.5286C154.402 18.995 154.654 18.5491 155.005 18.1909C155.355 17.8288 155.784 17.5582 156.291 17.3791C156.798 17.1962 157.358 17.1047 157.972 17.1047C158.395 17.1047 158.816 17.1542 159.235 17.2533C159.654 17.3524 160.037 17.5163 160.384 17.745C160.731 17.9698 161.009 18.2766 161.219 18.6654C161.432 19.0541 161.539 19.54 161.539 20.1231V26H159.549V24.7938H159.481C159.355 25.0377 159.178 25.2663 158.949 25.4798C158.724 25.6894 158.44 25.859 158.097 25.9886C157.758 26.1143 157.36 26.1772 156.902 26.1772ZM157.44 24.6566C157.855 24.6566 158.215 24.5746 158.52 24.4107C158.825 24.243 159.06 24.022 159.223 23.7476C159.391 23.4732 159.475 23.174 159.475 22.8501V21.8153C159.41 21.8687 159.3 21.9182 159.143 21.964C158.991 22.0097 158.82 22.0497 158.629 22.084C158.438 22.1183 158.25 22.1488 158.063 22.1755C157.876 22.2021 157.714 22.225 157.577 22.2441C157.268 22.286 156.992 22.3546 156.748 22.4499C156.504 22.5452 156.312 22.6785 156.171 22.8501C156.03 23.0177 155.959 23.235 155.959 23.5018C155.959 23.8829 156.098 24.1706 156.377 24.365C156.655 24.5594 157.009 24.6566 157.44 24.6566ZM166.878 26.1544C166.188 26.1544 165.571 25.9771 165.026 25.6227C164.481 25.2683 164.05 24.7537 163.734 24.0792C163.418 23.4046 163.26 22.5852 163.26 21.6209C163.26 20.6453 163.42 19.8221 163.74 19.1513C164.064 18.4767 164.5 17.9679 165.049 17.6249C165.598 17.2781 166.209 17.1047 166.884 17.1047C167.398 17.1047 167.822 17.1923 168.153 17.3677C168.485 17.5392 168.748 17.7469 168.942 17.9908C169.136 18.2309 169.287 18.4577 169.394 18.6711H169.479V14.292H171.555V26H169.519V24.6165H169.394C169.287 24.83 169.133 25.0567 168.931 25.2968C168.729 25.5331 168.462 25.7351 168.13 25.9028C167.799 26.0705 167.381 26.1544 166.878 26.1544ZM167.456 24.4565C167.894 24.4565 168.267 24.3383 168.576 24.102C168.885 23.8619 169.119 23.5284 169.279 23.1016C169.439 22.6747 169.519 22.1774 169.519 21.6095C169.519 21.0416 169.439 20.5481 169.279 20.1289C169.123 19.7096 168.891 19.3838 168.582 19.1513C168.277 18.9188 167.902 18.8026 167.456 18.8026C166.995 18.8026 166.61 18.9226 166.301 19.1627C165.992 19.4028 165.76 19.7344 165.603 20.1574C165.447 20.5805 165.369 21.0645 165.369 21.6095C165.369 22.1583 165.447 22.6481 165.603 23.0787C165.763 23.5056 165.998 23.8429 166.307 24.0906C166.619 24.3345 167.002 24.4565 167.456 24.4565ZM180.7 19.54L178.813 19.7458C178.76 19.5553 178.667 19.3762 178.533 19.2085C178.404 19.0408 178.228 18.9055 178.007 18.8026C177.786 18.6997 177.516 18.6482 177.196 18.6482C176.765 18.6482 176.403 18.7416 176.109 18.9283C175.82 19.1151 175.677 19.3571 175.681 19.6544C175.677 19.9097 175.77 20.1174 175.961 20.2775C176.155 20.4376 176.475 20.5691 176.921 20.672L178.419 20.9921C179.25 21.1712 179.867 21.4552 180.271 21.8439C180.679 22.2326 180.885 22.7414 180.889 23.3703C180.885 23.9229 180.723 24.4107 180.403 24.8338C180.086 25.253 179.646 25.5808 179.082 25.8171C178.518 26.0534 177.87 26.1715 177.138 26.1715C176.064 26.1715 175.199 25.9466 174.543 25.4969C173.888 25.0434 173.497 24.4126 173.371 23.6047L175.389 23.4103C175.481 23.8067 175.675 24.1058 175.972 24.3078C176.27 24.5098 176.656 24.6108 177.133 24.6108C177.624 24.6108 178.019 24.5098 178.316 24.3078C178.617 24.1058 178.768 23.8562 178.768 23.5589C178.768 23.3074 178.671 23.0997 178.476 22.9358C178.286 22.7719 177.988 22.6462 177.584 22.5585L176.087 22.2441C175.244 22.0688 174.621 21.7734 174.217 21.358C173.813 20.9387 173.613 20.409 173.617 19.7687C173.613 19.2275 173.76 18.7587 174.057 18.3624C174.358 17.9622 174.776 17.6535 175.309 17.4363C175.846 17.2152 176.466 17.1047 177.167 17.1047C178.196 17.1047 179.006 17.3238 179.597 17.7621C180.191 18.2004 180.559 18.793 180.7 19.54Z" fill="#115644"/>
<defs>
<clipPath id="clip0_48_2990">
<rect width="39.9388" height="40" fill="white"/>
</clipPath>
</defs>
</svg>
