<svg width="21" height="12" viewBox="0 0 21 12" fill="none" xmlns="http://www.w3.org/2000/svg">
<g clip-path="url(#clip0_152_5137)">
<path fill-rule="evenodd" clip-rule="evenodd" d="M5.94394 0C8.7216 0 11.0603 1.93308 11.7091 4.53654L21 4.53659L20.178 7.46341L11.7091 7.46346C11.0603 10.0669 8.7216 12 5.94394 12C2.66636 12 0 9.30849 0 6C0 2.69151 2.66636 0 5.94394 0ZM5.94394 2.63415C4.10538 2.63415 2.60953 4.1441 2.60953 6C2.60953 7.8559 4.10538 9.36585 5.94394 9.36585C7.7825 9.36585 9.27835 7.8559 9.27835 6C9.27835 4.1441 7.7825 2.63415 5.94394 2.63415Z" fill="#FF774A"/>
</g>
<defs>
<clipPath id="clip0_152_5137">
<rect width="21" height="12" fill="white"/>
</clipPath>
</defs>
</svg>
