<svg width="14" height="15" viewBox="0 0 14 15" fill="none" xmlns="http://www.w3.org/2000/svg">
<mask id="mask0_15_5865" style="mask-type:alpha" maskUnits="userSpaceOnUse" x="-1" y="0" width="15" height="15">
<rect x="-0.0234375" width="13.7394" height="14.4" fill="#D9D9D9"/>
</mask>
<g mask="url(#mask0_15_5865)">
<path d="M2.8388 11.34V12.15C2.8388 12.28 2.79825 12.3875 2.71715 12.4725C2.63605 12.5575 2.53348 12.6 2.40944 12.6H2.1232C1.99917 12.6 1.8966 12.5575 1.8155 12.4725C1.7344 12.3875 1.69385 12.28 1.69385 12.15V7.29L2.91036 3.45C2.95806 3.31 3.03678 3.2 3.1465 3.12C3.25623 3.04 3.38265 3 3.52577 3H10.1665C10.3096 3 10.436 3.04 10.5458 3.12C10.6555 3.2 10.7342 3.31 10.7819 3.45L11.9984 7.29V12.15C11.9984 12.28 11.9579 12.3875 11.8768 12.4725C11.7957 12.5575 11.6931 12.6 11.5691 12.6H11.2685C11.1445 12.6 11.0443 12.5575 10.968 12.4725C10.8916 12.3875 10.8535 12.28 10.8535 12.15V11.34H2.8388ZM2.88173 6.39H10.8105L10.0234 3.9H3.66889L2.88173 6.39ZM4.06962 9.69C4.28907 9.69 4.47274 9.61 4.62063 9.45C4.76852 9.29 4.84246 9.1 4.84246 8.88C4.84246 8.65 4.76852 8.4525 4.62063 8.2875C4.47274 8.1225 4.28907 8.04 4.06962 8.04C3.85017 8.04 3.66173 8.1225 3.5043 8.2875C3.34687 8.4525 3.26816 8.65 3.26816 8.88C3.26816 9.11 3.34687 9.3025 3.5043 9.4575C3.66173 9.6125 3.85017 9.69 4.06962 9.69ZM9.63695 9.69C9.8564 9.69 10.0448 9.61 10.2023 9.45C10.3597 9.29 10.4384 9.1 10.4384 8.88C10.4384 8.65 10.3597 8.4525 10.2023 8.2875C10.0448 8.1225 9.8564 8.04 9.63695 8.04C9.4175 8.04 9.23383 8.1225 9.08594 8.2875C8.93805 8.4525 8.8641 8.65 8.8641 8.88C8.8641 9.11 8.94043 9.3025 9.0931 9.4575C9.24576 9.6125 9.42704 9.69 9.63695 9.69ZM2.55256 10.44H11.1397V7.29H2.55256V10.44Z" fill="#121619"/>
</g>
</svg>
