<svg width="14" height="15" viewBox="0 0 14 15" fill="none" xmlns="http://www.w3.org/2000/svg">
<mask id="mask0_15_5868" style="mask-type:alpha" maskUnits="userSpaceOnUse" x="-1" y="0" width="15" height="15">
<rect x="-0.0234375" width="13.7394" height="14.4" fill="#D9D9D9"/>
</mask>
<g mask="url(#mask0_15_5868)">
<path d="M4.49626 9.53755C4.39302 9.53755 4.30563 9.50005 4.23407 9.42505C4.16251 9.35005 4.12673 9.26255 4.12673 9.16255C4.12673 9.05415 4.16251 8.96245 4.23407 8.88745C4.30563 8.81245 4.39302 8.77495 4.49626 8.77495C4.59167 8.77495 4.67516 8.81245 4.74672 8.88745C4.81828 8.96245 4.85406 9.05415 4.85406 9.16255C4.85406 9.26255 4.81828 9.35005 4.74672 9.42505C4.67516 9.50005 4.59167 9.53755 4.49626 9.53755ZM6.51195 9.53755C6.40852 9.53755 6.32103 9.50005 6.24947 9.42505C6.17791 9.35005 6.14213 9.26255 6.14213 9.16255C6.14213 9.05415 6.17791 8.96245 6.24947 8.88745C6.32103 8.81245 6.40852 8.77495 6.51195 8.77495C6.61537 8.77495 6.70287 8.81245 6.77443 8.88745C6.84599 8.96245 6.88177 9.05415 6.88177 9.16255C6.88177 9.26255 6.84599 9.35005 6.77443 9.42505C6.70287 9.50005 6.61537 9.53755 6.51195 9.53755ZM8.52763 9.53755C8.43222 9.53755 8.34873 9.50005 8.27718 9.42505C8.20562 9.35005 8.16984 9.26255 8.16984 9.16255C8.16984 9.05415 8.20562 8.96245 8.27718 8.88745C8.34873 8.81245 8.43222 8.77495 8.52763 8.77495C8.63087 8.77495 8.71827 8.81245 8.78983 8.88745C8.86139 8.96245 8.89717 9.05415 8.89717 9.16255C8.89717 9.26255 8.86139 9.35005 8.78983 9.42505C8.71827 9.50005 8.63087 9.53755 8.52763 9.53755ZM3.41113 7.62505V6.98755C3.41113 6.15415 3.68144 5.42705 4.22204 4.80625C4.76265 4.18545 5.42653 3.83755 6.21369 3.76255V2.69995H6.81021V3.76255C7.59736 3.83755 8.26124 4.18545 8.80185 4.80625C9.34246 5.42705 9.61276 6.15415 9.61276 6.98755V7.62505H3.41113ZM4.00737 6.98755H9.01653C9.01653 6.27095 8.77208 5.65635 8.28319 5.14375C7.7941 4.63135 7.20369 4.37515 6.51195 4.37515C5.82021 4.37515 5.22979 4.62925 4.74071 5.13745C4.25181 5.64585 4.00737 6.26255 4.00737 6.98755ZM4.49626 11.1627C4.39302 11.1627 4.30563 11.1252 4.23407 11.0502C4.16251 10.9752 4.12673 10.8835 4.12673 10.7751C4.12673 10.6751 4.16251 10.5876 4.23407 10.5126C4.30563 10.4376 4.39302 10.4001 4.49626 10.4001C4.59167 10.4001 4.67516 10.4376 4.74672 10.5126C4.81828 10.5876 4.85406 10.6751 4.85406 10.7751C4.85406 10.8835 4.81828 10.9752 4.74672 11.0502C4.67516 11.1252 4.59167 11.1627 4.49626 11.1627ZM6.51195 11.1627C6.40852 11.1627 6.32103 11.1252 6.24947 11.0502C6.17791 10.9752 6.14213 10.8835 6.14213 10.7751C6.14213 10.6751 6.17791 10.5876 6.24947 10.5126C6.32103 10.4376 6.40852 10.4001 6.51195 10.4001C6.61537 10.4001 6.70287 10.4376 6.77443 10.5126C6.84599 10.5876 6.88177 10.6751 6.88177 10.7751C6.88177 10.8835 6.84599 10.9752 6.77443 11.0502C6.70287 11.1252 6.61537 11.1627 6.51195 11.1627ZM8.52763 11.1627C8.43222 11.1627 8.34873 11.1252 8.27718 11.0502C8.20562 10.9752 8.16984 10.8835 8.16984 10.7751C8.16984 10.6751 8.20562 10.5876 8.27718 10.5126C8.34873 10.4376 8.43222 10.4001 8.52763 10.4001C8.63087 10.4001 8.71827 10.4376 8.78983 10.5126C8.86139 10.5876 8.89717 10.6751 8.89717 10.7751C8.89717 10.8835 8.86139 10.9752 8.78983 11.0502C8.71827 11.1252 8.63087 11.1627 8.52763 11.1627Z" fill="#121619"/>
</g>
</svg>
