<svg width="14" height="15" viewBox="0 0 14 15" fill="none" xmlns="http://www.w3.org/2000/svg">
<mask id="mask0_15_5862" style="mask-type:alpha" maskUnits="userSpaceOnUse" x="0" y="0" width="15" height="15">
<rect x="0.405762" width="13.7394" height="14.4" fill="#D9D9D9"/>
</mask>
<g mask="url(#mask0_15_5862)">
<path d="M1.55078 11.4V7.575C1.55078 7.325 1.59849 7.09 1.6939 6.87C1.78931 6.65 1.93243 6.47 2.12326 6.33V4.59C2.12326 4.14 2.26876 3.7625 2.55977 3.4575C2.85078 3.1525 3.21096 3 3.64032 3H6.21646C6.42636 3 6.62196 3.05 6.80324 3.15C6.98453 3.25 7.14196 3.385 7.27554 3.555C7.40911 3.385 7.56416 3.25 7.74067 3.15C7.91719 3.05 8.1104 3 8.3203 3H10.8964C11.3258 3 11.6884 3.1525 11.9841 3.4575C12.2799 3.7625 12.4278 4.14 12.4278 4.59V6.33C12.6186 6.47 12.7618 6.65 12.8572 6.87C12.9526 7.09 13.0003 7.325 13.0003 7.575V11.4H12.1416V10.2H2.40949V11.4H1.55078ZM7.70489 6.075H11.5691V4.59C11.5691 4.39 11.5047 4.225 11.3759 4.095C11.2471 3.965 11.0873 3.9 10.8964 3.9H8.27737C8.11517 3.9 7.9792 3.97 7.86948 4.11C7.75976 4.25 7.70489 4.41 7.70489 4.59V6.075ZM2.98197 6.075H6.84618V4.59C6.84618 4.41 6.79132 4.25 6.68159 4.11C6.57187 3.97 6.43591 3.9 6.2737 3.9H3.64032C3.45903 3.9 3.30399 3.9675 3.17518 4.1025C3.04637 4.2375 2.98197 4.4 2.98197 4.59V6.075ZM2.40949 9.3H12.1416V7.575C12.1416 7.405 12.0867 7.2625 11.977 7.1475C11.8673 7.0325 11.7313 6.975 11.5691 6.975H2.98197C2.81977 6.975 2.68381 7.0325 2.57408 7.1475C2.46436 7.2625 2.40949 7.405 2.40949 7.575V9.3Z" fill="#121619"/>
</g>
</svg>
