<svg width="36" height="36" viewBox="0 0 36 36" fill="none" xmlns="http://www.w3.org/2000/svg">
<g clip-path="url(#clip0_152_5141)">
<path fill-rule="evenodd" clip-rule="evenodd" d="M20.0795 33.2056H23.3255V17.0696L27.9235 17.0696L28.8438 13.838L23.3255 13.8379V9.39338C23.3255 7.37426 24.9755 5.73162 27.0036 5.73162V2.5C23.1856 2.5 20.0795 5.59266 20.0795 9.39338V13.8379L18.4424 13.8379C17.716 10.9633 15.0978 8.82893 11.9881 8.82893C8.31879 8.82893 5.33372 11.8007 5.33372 15.4538C5.33372 19.1068 8.31879 22.0786 11.9881 22.0786C15.0978 22.0786 17.716 19.9442 18.4424 17.0696L20.0795 17.0696V33.2056ZM33.7278 13.838H36V17.0696H33.7278V27.7094H30.4817V9.61228H33.7278V13.838ZM11.9881 11.7374C9.9298 11.7374 8.25516 13.4046 8.25516 15.4538C8.25516 17.5029 9.9298 19.1701 11.9881 19.1701C14.0464 19.1701 15.7211 17.5029 15.7211 15.4538C15.7211 13.4046 14.0464 11.7374 11.9881 11.7374ZM0 18.5486C0 23.4807 4.0303 27.4931 8.98409 27.4931V24.2615C5.82017 24.2615 3.24605 21.6985 3.24605 18.5486V9.61221H0V18.5486Z" fill="#FF774A"/>
</g>
<defs>
<clipPath id="clip0_152_5141">
<rect width="36" height="36" fill="white"/>
</clipPath>
</defs>
</svg>
